<svg preserveAspectRatio="none" width="45" height="39" viewBox="0 0 45 39" fill="none" xmlns="http://www.w3.org/2000/svg">
<g clip-path="url(#clip0_30_244)">
<path d="M28.0315 17.8796V16.7109L26.9814 17.8796H28.0315Z" fill="white"/>
<path d="M10.2394 13.8599H6.03158C2.88127 13.8599 0.401245 16.0624 0.401245 18.7207V34.0671C0.401245 36.7832 2.95575 38.9214 6.03158 38.9214H10.2394C10.4629 38.9214 10.6863 38.7288 10.6863 38.5362V32.0573C10.6863 31.8647 10.4629 31.6656 10.2394 31.6656H6.93273V21.18H10.2394C10.4629 21.18 10.6863 20.9873 10.6863 20.7947V14.3158C10.6863 14.059 10.4629 13.8599 10.2394 13.8599Z" fill="white"/>
<path d="M36.9199 0.833592L36.8454 0.769382L36.7709 0.705171C33.3153 -2.27421 28.5116 -4.08496 23.2537 -4.08496C17.7723 -4.08496 12.4399 -2.01095 8.83525 1.54633C8.6863 1.73897 8.6863 2.00223 8.90973 2.13065C9.13316 2.25907 9.4385 2.25907 9.58746 2.06644C12.9686 -1.234 17.7723 -3.17959 22.8813 -3.2438V-0.392835C22.8813 -0.200203 23.1047 -0.0011489 23.3281 -0.0011489C23.5516 -0.0011489 23.7824 -0.193782 23.7824 -0.392835V-3.2438C28.4372 -3.11538 32.7195 -1.49726 35.9443 1.09686L33.5387 3.10666C33.3898 3.23508 33.3898 3.49192 33.5387 3.69098C33.6132 3.75519 33.7621 3.8194 33.8366 3.8194C33.9856 3.8194 34.06 3.75519 34.1345 3.69098L36.4656 1.68118C39.4669 4.3973 41.3437 8.08942 41.4927 12.1668H38.186C37.9625 12.1668 37.7391 12.3594 37.7391 12.5521C37.7391 12.7447 37.9625 12.9373 38.186 12.9373H41.4927C41.3437 16.9505 39.4669 20.6426 36.4656 23.423L34.1345 21.4132C33.9856 21.2848 33.6877 21.2848 33.4568 21.4132C33.3078 21.5416 33.3078 21.7984 33.4568 21.9975L35.7879 24.0073C32.6376 26.595 28.3552 28.2131 23.626 28.3415V25.4906C23.626 25.2979 23.4026 25.1053 23.1792 25.1053C22.9558 25.1053 22.7323 25.2979 22.7323 25.4906V28.3415C17.9287 28.2131 13.4974 26.595 10.1162 23.6156C9.96728 23.4872 9.66938 23.423 9.4385 23.6156C9.28955 23.744 9.21508 24.0073 9.4385 24.1999C13.1176 27.4362 17.9957 29.1827 23.1792 29.1827C28.4372 29.1827 33.2408 27.3719 36.6965 24.3926L36.7709 24.3284L36.8454 24.2641C40.3011 21.2848 42.4013 17.1432 42.4013 12.6099C42.4757 7.95458 40.3011 3.87719 36.9199 0.833592Z" fill="white"/>
<path d="M35.0918 17.5521C35.0918 12.8904 30.6606 9.06982 25.2537 9.06982C19.8467 9.06982 15.4155 12.8904 15.4155 17.5521C15.4155 22.2138 19.7723 26.0343 25.2537 26.0343C30.735 26.0343 35.0918 22.2138 35.0918 17.5521ZM23.7567 16.1266C23.6822 16.0624 23.5333 15.9982 23.3098 15.9982C23.0864 15.9982 22.9375 16.0624 22.7811 16.1266C22.6321 16.1908 22.4832 16.3192 22.3342 16.4477L21.582 15.6707C21.6565 15.6065 21.8054 15.5423 21.8799 15.4139C22.0289 15.3496 22.1778 15.2854 22.3342 15.2212C22.4832 15.157 22.7066 15.0928 22.9375 15.0928C23.0864 15.0928 23.3098 15.0928 23.5407 15.0928C24.0695 15.0928 24.5163 15.2212 24.8142 15.4139C25.1121 15.6065 25.2611 15.8698 25.2611 16.255C25.2611 16.3834 25.2611 16.5119 25.1866 16.6403C25.1121 16.7687 25.0377 16.8329 24.9632 16.9613C24.8887 17.0256 24.8142 17.154 24.6653 17.2182C24.5908 17.2824 24.4419 17.3466 24.3674 17.4108C24.2929 17.475 24.2184 17.475 24.144 17.5392C24.0695 17.6034 23.995 17.6034 23.9205 17.6677C23.8461 17.7319 23.7716 17.7961 23.6971 17.7961C23.6226 17.8603 23.5482 17.9245 23.4737 17.9887H25.4249V18.9583H21.5969C21.5969 18.7657 21.5969 18.573 21.6714 18.374C21.7459 18.2456 21.7459 18.0529 21.8948 17.9181C21.9693 17.7897 22.1182 17.6612 22.2672 17.5328C22.4161 17.4044 22.5651 17.3402 22.796 17.2118C23.0194 17.0833 23.2428 17.0191 23.3992 16.9549C23.5482 16.8907 23.6971 16.8265 23.7716 16.7623C23.8461 16.6981 23.9205 16.6339 23.995 16.6339C24.0695 16.5697 24.0695 16.5054 24.0695 16.4412C23.9056 16.2614 23.8312 16.1908 23.7567 16.1266ZM29.7594 18.8491H29.0817V19.7545H27.8826V18.8491H25.7824V17.9438L28.2625 15.2276H29.0891V17.9438H29.7669V18.8491H29.7594Z" fill="white"/>
</g>
<defs>
<clipPath id="clip0_30_244">
<rect width="44" height="38" fill="white" transform="translate(0.401245 0.915039)"/>
</clipPath>
</defs>
</svg>
