<svg preserveAspectRatio="none" width="52" height="29" viewBox="0 0 52 29" fill="none" xmlns="http://www.w3.org/2000/svg">
<path d="M28.5555 19.6893H2.66051L1.96371 20.0092C0.806822 20.7867 0 22.5042 0 24.5021C0 26.5001 0.806822 28.2225 1.96371 29H28.5555L52 18.3065V17.6175H50.253L28.3254 27.6172H3.48067H2.04706C1.48362 27.0021 0.936847 26.0129 0.936847 24.5021C0.936847 22.1892 2.22043 21.1017 2.87389 20.6981H28.5555L52 10.0046V9.31073H51.2999L28.5555 19.6893Z" fill="white"/>
<path d="M28.5855 13.6856H2.87387C2.76385 13.6856 2.67383 13.5527 2.67383 13.3903C2.67383 13.2279 2.76385 13.095 2.87387 13.095H28.5221L49.9462 3.32665C50.0529 3.27744 50.163 3.36602 50.1963 3.5235C50.2296 3.68097 50.1696 3.84337 50.0629 3.89258L28.5855 13.6856Z" fill="white"/>
<path d="M28.5855 16.6876H2.87387C2.76385 16.6876 2.67383 16.5547 2.67383 16.3923C2.67383 16.2299 2.76385 16.097 2.87387 16.097H28.5221L49.9462 6.32867C50.0529 6.27946 50.163 6.36804 50.1963 6.52551C50.2296 6.68299 50.1696 6.84538 50.0629 6.89459L28.5855 16.6876Z" fill="white"/>
<path d="M28.5855 22.5977H2.87387C2.76385 22.5977 2.67383 22.4649 2.67383 22.3025C2.67383 22.1401 2.76385 22.0072 2.87387 22.0072H28.5221L49.9462 12.2388C50.0529 12.1896 50.163 12.2782 50.1963 12.4357C50.2296 12.5931 50.1696 12.7555 50.0629 12.8047L28.5855 22.5977Z" fill="white"/>
<path d="M28.5855 25.6046H2.87387C2.76385 25.6046 2.67383 25.4717 2.67383 25.3093C2.67383 25.1469 2.76385 25.014 2.87387 25.014H28.5221L49.9462 15.2457C50.0529 15.1964 50.163 15.285 50.1963 15.4425C50.2296 15.6 50.1696 15.7624 50.0629 15.8116L28.5855 25.6046Z" fill="white"/>
<path d="M52 0H25.4049L3.25063 10.103L1.96371 10.6935C0.806822 11.4711 0 13.1885 0 15.1914C0 17.1894 0.806822 18.9068 1.96371 19.6893H28.5555L52 8.99576V8.30188H50.253L50.0096 8.41507L28.3254 18.3065H3.48067H2.04706C1.48362 17.6913 0.936847 16.7022 0.936847 15.1914C0.936847 12.8785 2.22043 11.7909 2.87389 11.3874H28.5555L50.0096 1.59936L50.253 1.48617L52 0.688953V0Z" fill="white"/>
</svg>
