<svg preserveAspectRatio="none" width="41" height="47" viewBox="0 0 41 47" fill="none" xmlns="http://www.w3.org/2000/svg">
<path d="M20.3883 47C22.8684 47 24.8904 45.4989 25.2368 43.4291H15.4392C15.8861 45.4989 17.9081 47 20.3883 47Z" fill="#FFF200"/>
<path d="M37.9614 18.2369C37.9614 11.9341 31.3142 5.92045 23.0919 4.88554C22.7567 4.88554 22.5333 4.60583 22.5333 4.32613V1.7808C22.5333 0.839119 21.6284 0 20.3883 0C19.1483 0 18.2434 0.755207 18.2434 1.7808V4.3168C18.2434 4.59651 18.0199 4.87622 17.6848 4.87622C9.23901 6.01369 2.81531 12.2232 2.81531 19.365V37.6019H38.0731V18.2369H37.9614Z" fill="#FFF200"/>
<path d="M38.7433 38.8233H2.14496C1.01662 38.8233 0 39.5785 0 40.6041C0 41.639 0.904905 42.3942 2.14496 42.3942H14.8695H26.1305H38.855C39.9834 42.3942 41 41.639 41 40.6041C41 39.5785 39.8717 38.8233 38.7433 38.8233Z" fill="#FFF200"/>
</svg>
