<svg preserveAspectRatio="none" width="56" height="55" viewBox="0 0 56 55" fill="none" xmlns="http://www.w3.org/2000/svg">
<rect width="56" height="55" fill="#1B3069"/>
<path d="M47.2527 40.1039L40.338 31.6562C40.1617 31.4385 39.855 31.3115 39.5331 31.3115H30.4566L30.2343 28.8444H38.1839C38.7128 28.8444 39.1421 28.5057 39.1421 28.0885C39.1421 27.6712 38.7128 27.3326 38.1839 27.3326H30.0964L29.8664 24.8654C29.6057 22.0536 26.6084 19.8525 23.0361 19.8525C22.7677 19.8525 22.5148 19.9432 22.3308 20.0943C22.1468 20.2455 22.0548 20.4572 22.0778 20.6628L23.1664 32.1218C23.174 32.1702 23.197 32.2125 23.2124 32.2549C23.2277 32.2972 23.2354 32.3395 23.2507 32.3758C23.2814 32.4302 23.3274 32.4726 23.3734 32.5149C23.404 32.5451 23.427 32.5814 23.4577 32.6056C23.5113 32.6479 23.5803 32.6782 23.6493 32.7084C23.6877 32.7265 23.7183 32.7507 23.7566 32.7628C23.8716 32.7991 23.9943 32.8233 24.1169 32.8233H38.9965L45.6275 40.9263C45.8115 41.15 46.1181 41.271 46.4324 41.271C46.6087 41.271 46.7927 41.2347 46.9537 41.15C47.406 40.9263 47.5363 40.4546 47.2527 40.1039ZM27.9576 24.9743L28.5402 31.3115H25.0215L24.0786 21.4549C26.1714 21.8117 27.7966 23.2327 27.9576 24.9743Z" fill="#F7F300"/>
<path d="M38.3909 36.3668C37.8696 36.2761 37.3637 36.5301 37.241 36.9352C35.9685 41.3617 30.8706 44.5787 25.1135 44.5787C18.2602 44.5787 12.6794 40.1764 12.6794 34.7704C12.6794 31.4385 14.7952 28.3606 18.3369 26.5465C18.7815 26.3167 18.9042 25.8511 18.6205 25.5004C18.3292 25.1496 17.7389 25.0529 17.2943 25.2766C13.2161 27.3749 10.7706 30.9245 10.7706 34.7765C10.7706 41.017 17.21 46.0965 25.1212 46.0965C31.7675 46.0965 37.6473 42.3896 39.1191 37.2739C39.2341 36.8687 38.9122 36.4636 38.3909 36.3668Z" fill="#F7F300"/>
<path d="M24.9526 17.4938C22.6145 17.4938 20.7134 16.0122 20.7134 14.1921C20.7134 12.3659 22.6145 10.8844 24.9526 10.8844C27.2907 10.8844 29.1919 12.3659 29.1919 14.186C29.1995 16.0122 27.2984 17.4938 24.9526 17.4938ZM24.9526 12.3961C23.6724 12.3961 22.6299 13.2004 22.6299 14.186C22.6299 15.1717 23.6724 15.976 24.9526 15.976C26.2328 15.976 27.2754 15.1717 27.2754 14.186C27.2831 13.2004 26.2405 12.3961 24.9526 12.3961Z" fill="#F7F300"/>
</svg>
