<svg preserveAspectRatio="none" width="35" height="31" viewBox="0 0 35 31" fill="none" xmlns="http://www.w3.org/2000/svg">
<path d="M22.1933 18.2187C20.8258 17.8695 19.8144 16.8218 19.8144 15.5994V14.3189C19.8144 14.2025 19.8857 14.0278 20.0281 13.9696C22.0438 13.2129 23.632 11.7578 24.4226 9.95336C24.4938 9.77874 24.6363 9.72054 24.8571 9.72054C25.3628 9.72054 26.0821 8.96385 26.2958 8.32357C26.5095 7.6833 26.0821 7.04302 25.3628 6.8684C25.1491 6.8102 25.0779 6.69378 25.0779 6.51916C24.9995 2.73572 21.6164 0 17.0723 0C12.5354 0 9.22348 2.73572 9.08103 6.51916C9.08103 6.69378 8.93858 6.8102 8.79613 6.8684L8.58246 6.92661C8.21922 7.04302 7.93433 7.21764 7.72065 7.50868C7.50698 7.79971 7.50698 8.09075 7.57821 8.38178C7.79188 9.02206 8.58958 9.83695 9.1665 9.77874C9.38017 9.77874 9.60096 9.83695 9.67218 10.0116C10.4628 11.816 12.0511 13.2712 14.0667 14.0278C14.2091 14.086 14.2804 14.2025 14.2804 14.3771V15.6576C14.2804 16.8218 13.3473 17.9277 11.9015 18.2769C4.68652 19.9649 0.142447 24.7961 0 30.8496H34.0093C33.7885 24.7961 29.3228 19.9649 22.1933 18.2187Z" fill="white"/>
</svg>
