<svg preserveAspectRatio="none" width="41" height="47" viewBox="0 0 41 47" fill="none" xmlns="http://www.w3.org/2000/svg">
<path d="M20.3883 46.5762C22.8684 46.5762 24.8904 45.0988 25.2368 43.0617H15.4392C15.8861 45.0988 17.9081 46.5762 20.3883 46.5762Z" fill="#FFF200"/>
<path d="M37.9612 18.2684C37.9612 12.0654 31.3141 6.1468 23.0918 5.12825C22.7566 5.12825 22.5332 4.85297 22.5332 4.57769V2.07261C22.5332 1.14583 21.6283 0.319977 20.3882 0.319977C19.1482 0.319977 18.2432 1.06324 18.2432 2.07261V4.56851C18.2432 4.84379 18.0198 5.11908 17.6847 5.11908C9.23889 6.23856 2.81519 12.3498 2.81519 19.3787V37.3272H38.073V18.2684H37.9612Z" fill="#FFF200"/>
<path d="M38.7433 38.5291H2.14496C1.01662 38.5291 0 39.2723 0 40.2817C0 41.3002 0.904905 42.0435 2.14496 42.0435H14.8695H26.1305H38.855C39.9834 42.0435 41 41.3002 41 40.2817C41 39.2723 39.8717 38.5291 38.7433 38.5291Z" fill="#FFF200"/>
</svg>
