
<svg preserveAspectRatio="none" width="41" height="45" viewBox="0 0 41 45" fill="none" xmlns="http://www.w3.org/2000/svg">
<path d="M20.3883 44.3311C22.8684 44.3311 24.8904 42.9412 25.2368 41.0247H15.4392C15.8861 42.9412 17.9081 44.3311 20.3883 44.3311Z" fill="#FFF200"/>
<path d="M37.9612 17.6996C37.9612 11.8639 31.3141 6.29577 23.0918 5.33754C22.7566 5.33754 22.5332 5.07855 22.5332 4.81957V2.46284C22.5332 1.59093 21.6283 0.813984 20.3882 0.813984C19.1482 0.813984 18.2432 1.51324 18.2432 2.46284V4.81094C18.2432 5.06992 18.0198 5.3289 17.6847 5.3289C9.23889 6.3821 2.81519 12.1315 2.81519 18.7442V35.6298H38.073V17.6996H37.9612Z" fill="#FFF200"/>
<path d="M38.7433 36.7605H2.14496C1.01662 36.7605 0 37.4598 0 38.4094C0 39.3676 0.904905 40.0668 2.14496 40.0668H14.8695H26.1305H38.855C39.9834 40.0668 41 39.3676 41 38.4094C41 37.4598 39.8717 36.7605 38.7433 36.7605Z" fill="#FFF200"/>
</svg>
